<svg id="Layer_1" data-name="Layer 1" xmlns="http://www.w3.org/2000/svg" xmlns:xlink="http://www.w3.org/1999/xlink" viewBox="0 0 211.4 211.4"><defs><style>.cls-1{fill:url(#linear-gradient);}.cls-2{fill:url(#linear-gradient-2);}.cls-3{fill:url(#linear-gradient-3);}</style><linearGradient id="linear-gradient" x1="95.48" y1="170.5" x2="95.48" y2="40.9" gradientUnits="userSpaceOnUse"><stop offset="0" stop-color="#7045f7"/><stop offset="0.91" stop-color="#fe876a"/><stop offset="1" stop-color="#fda077"/></linearGradient><linearGradient id="linear-gradient-2" x1="134.99" y1="145.35" x2="134.99" y2="122.25" xlink:href="#linear-gradient"/><linearGradient id="linear-gradient-3" x1="167.71" y1="105.7" x2="169.24" y2="105.7" xlink:href="#linear-gradient"/></defs><title>Zbetalogo</title><rect width="211.4" height="211.4" rx="44.04"/><path class="cls-1" d="M125.39,65.66h16.78A6.63,6.63,0,0,0,148.79,59V47.52a6.63,6.63,0,0,0-6.62-6.62H69.76V59a6.62,6.62,0,0,1-6.62,6.62H50.56a6.62,6.62,0,0,0-6.62,6.62V83.79a6.62,6.62,0,0,0,6.62,6.62H64.07V72.28a6.62,6.62,0,0,1,6.62-6.62h27.1V90.41h-12A6.62,6.62,0,0,0,79.2,97v21H64.6a4.58,4.58,0,0,0-.53,0A6.6,6.6,0,0,0,58,124.7v20.65h-9.2A6.62,6.62,0,0,0,42.16,152v11.52a6.62,6.62,0,0,0,6.62,6.61H68.43a6.55,6.55,0,0,0,2.26.4H85.05a6.51,6.51,0,0,0,2.26-.4h33.88V145.35H82.57V120.6h27.6V97a6.63,6.63,0,0,0-6.62-6.62h21.84Z"/><path class="cls-2" d="M148.79,138.73v-9.86a6.62,6.62,0,0,0-6.62-6.62H127.8a6.71,6.71,0,0,0-2.41.46,6.6,6.6,0,0,0-4.2,6.16v16.48h21A6.62,6.62,0,0,0,148.79,138.73Z"/><path class="cls-3" d="M168.48,100.29h0a.76.76,0,0,1-.77-.76V56.84a.76.76,0,0,1,.77-.77h0a.76.76,0,0,1,.76.77V99.53A.76.76,0,0,1,168.48,100.29Zm.76,26.94V111.88a.77.77,0,0,0-.76-.77h0a.77.77,0,0,0-.77.77v15.35a.76.76,0,0,0,.77.77h0A.76.76,0,0,0,169.24,127.23Zm0,27.34V139.21a.76.76,0,0,0-.76-.76h0a.76.76,0,0,0-.77.76v15.36a.76.76,0,0,0,.77.76h0A.76.76,0,0,0,169.24,154.57Z"/></svg>